<svg xmlns="http://www.w3.org/2000/svg" width="31.834" height="24" viewBox="0 0 31.834 24">
  <g id="_1068651" data-name="1068651" transform="translate(31.834)">
    <path id="Path" d="M-9.871,3.553v7.772a.933.933,0,0,0,.933.933h1.522A7.893,7.893,0,0,1-2.752,7.514L-3.685.429-1.859,0,0,14.123H-18.639V3.553Z" transform="translate(-5.638 3.193)" fill="#ff983b"/>
    <path id="Path-2" data-name="Path" d="M-6.218,0A6.217,6.217,0,0,1,0,6.218a6.217,6.217,0,0,1-6.218,6.218,6.217,6.217,0,0,1-6.218-6.218A6.217,6.217,0,0,1-6.218,0Z" transform="translate(-18.06 11.098)" fill="#596775"/>
    <path id="Path-3" data-name="Path" d="M-8.4,0a1.866,1.866,0,0,1-.183,2.426,4.357,4.357,0,0,0,0,6.155,4.357,4.357,0,0,0,6.155,0A1.866,1.866,0,0,1,0,8.4a6.216,6.216,0,0,1-5.5,3.323A6.217,6.217,0,0,1-11.721,5.5,6.216,6.216,0,0,1-8.4,0Z" transform="translate(-18.774 11.813)" fill="#35404a"/>
    <path id="Path-4" data-name="Path" d="M-2.953,5.907A2.957,2.957,0,0,0,0,2.953,2.957,2.957,0,0,0-2.953,0,2.957,2.957,0,0,0-5.907,2.953,2.957,2.957,0,0,0-2.953,5.907Z" transform="translate(-21.324 14.363)" fill="#d3cdbf"/>
    <path id="Path-5" data-name="Path" d="M-7.09,0A7.161,7.161,0,0,1-.008,6.159a.871.871,0,0,1-.863.992H-13.309a.871.871,0,0,1-.863-.992A7.161,7.161,0,0,1-7.09,0Z" transform="translate(-17.187 10.166)" fill="#ffcf5d"/>
    <path id="Path-6" data-name="Path" d="M-5.13,10.259A5.136,5.136,0,0,0,0,5.13,5.136,5.136,0,0,0-5.13,0a5.136,5.136,0,0,0-5.13,5.13A5.136,5.136,0,0,0-5.13,10.259Z" transform="translate(-0.466 12.995)" fill="#596775"/>
    <path id="Path-7" data-name="Path" d="M-3.731,1.865A1.865,1.865,0,0,0-1.865,3.731,1.865,1.865,0,0,0,0,1.865,1.865,1.865,0,0,0-1.865,0,1.865,1.865,0,0,0-3.731,1.865Z" transform="translate(-3.731 16.259)" fill="#d3cdbf"/>
    <path id="Path-8" data-name="Path" d="M-6.773,0a1.866,1.866,0,0,1-.218,2.375,3.241,3.241,0,0,0-.954,2.308,3.242,3.242,0,0,0,.954,2.308,3.241,3.241,0,0,0,2.308.954,3.241,3.241,0,0,0,2.308-.954A1.865,1.865,0,0,1,0,6.773a5.136,5.136,0,0,1-4.683,3.04,5.136,5.136,0,0,1-5.13-5.13A5.136,5.136,0,0,1-6.773,0Z" transform="translate(-0.913 13.441)" fill="#35404a"/>
    <path id="Path-9" data-name="Path" d="M-6.6.811A6.068,6.068,0,0,1-.289.962.623.623,0,0,1-.31,2.027L-5.176,4.836a3.107,3.107,0,0,1-1.554.417h-2a.685.685,0,0,1-.656-.878A6.039,6.039,0,0,1-6.6.811Z" transform="translate(-2.029 12.064)" fill="#ffcf5d"/>
    <path id="Path-10" data-name="Path" d="M-9.637,0h8.7A.933.933,0,0,1,0,.933v1.4a.933.933,0,0,1-.933.933h-8.7a.933.933,0,0,1-.933-.933V.933A.933.933,0,0,1-9.637,0Z" transform="translate(-14.608 5.036)" fill="#596775"/>
    <path id="Path-11" data-name="Path" d="M-9.637,0H-8.7a1.4,1.4,0,0,0,1.4,1.4H0v.933a.933.933,0,0,1-.933.933h-8.7a.933.933,0,0,1-.933-.933V.933A.933.933,0,0,1-9.637,0Z" transform="translate(-14.608 5.036)" fill="#35404a"/>
    <path id="Path-12" data-name="Path" d="M-1.628,0h.853A.775.775,0,0,1-.019.943l-.9,4.046a.775.775,0,0,1-.757.607,2.8,2.8,0,0,1-2.775-2.44,2.8,2.8,0,0,1-.023-.405A2.828,2.828,0,0,1-1.628,0Z" transform="translate(-4.874 0.466)" fill="#ffcf5d"/>
    <path id="Path-13" data-name="Path" d="M-16.1,5.813A7.171,7.171,0,0,1-11.243,0,1.865,1.865,0,0,1-11.9,2.369,5.343,5.343,0,0,0-13.068,3.4a.932.932,0,0,0,.72,1.526H-1.865L0,6.8H-15.236a.869.869,0,0,1-.864-.982Z" transform="translate(-15.26 10.521)" fill="#ff983b"/>
    <path id="Path-14" data-name="Path" d="M-1.592.273a.932.932,0,0,1,1.319,0,.933.933,0,0,1,0,1.319.933.933,0,0,1-1.319,0A.933.933,0,0,1-1.592.273Z" transform="translate(-8.391 1.747)" fill="#8b9ba9"/>
    <path id="Shape" d="M-17.61,17.782h6.431c-.007.114-.012.229-.012.342a5.6,5.6,0,0,0,5.6,5.6,5.6,5.6,0,0,0,5.6-5.6A5.565,5.565,0,0,0-1.711,14.1a1.078,1.078,0,0,0,.148-.524,1.083,1.083,0,0,0-.5-.945,6.571,6.571,0,0,0-3.852-1.026l-.669-5.08h.04a1.234,1.234,0,0,0,1.211-.972l.9-4.046A1.235,1.235,0,0,0-4.682.464,1.234,1.234,0,0,0-5.649,0H-6.5A3.35,3.35,0,0,0-9.14,1.3,1.4,1.4,0,0,0-10.723,2.68a1.4,1.4,0,0,0,.981,1.335l.842,6.394a8.358,8.358,0,0,0-4.477,4.575h-1.2a.466.466,0,0,1-.466-.466V10.164A.468.468,0,0,0-15.51,9.7a.467.467,0,0,0-.466.466v4.354a1.4,1.4,0,0,0,1.4,1.4h1.522a.469.469,0,0,0,.439-.31,7.433,7.433,0,0,1,4.39-4.464.467.467,0,0,0,.3-.5l-.88-6.666a1.4,1.4,0,0,0,.882-1.3,1.387,1.387,0,0,0-.369-.944A2.412,2.412,0,0,1-6.5.932h.853a.3.3,0,0,1,.24.116.3.3,0,0,1,.061.26l-.9,4.046a.308.308,0,0,1-.3.242,2.307,2.307,0,0,1-.482-.051.466.466,0,0,0-.559.517h0l.744,5.655a6.51,6.51,0,0,0-5.018,4.591,1.155,1.155,0,0,0-.025.542H-30.5a.4.4,0,0,1-.4-.461,6.711,6.711,0,0,1,6.62-5.757,6.611,6.611,0,0,1,4.1,1.408.466.466,0,0,0,.654-.082.467.467,0,0,0-.081-.654,7.531,7.531,0,0,0-4.2-1.589V8.767h8.318l.025,0h.01a1.4,1.4,0,0,0,1.317-1.394v-1.4a1.4,1.4,0,0,0-1.4-1.4h-8.7a1.4,1.4,0,0,0-1.4,1.4v1a.467.467,0,0,0,.466.466.467.467,0,0,0,.466-.466v-1a.469.469,0,0,1,.467-.466h8.7a.467.467,0,0,1,.466.466v1.4a.462.462,0,0,1-.45.464l-.025,0h-8.7a.466.466,0,0,0-.465.464h-.031V9.715a7.648,7.648,0,0,0-7.078,6.546A1.337,1.337,0,0,0-30.95,17.7,6.693,6.693,0,0,0-24.278,24,6.693,6.693,0,0,0-17.61,17.782Z" fill="#202841"/>
  </g>
</svg>
