<svg xmlns="http://www.w3.org/2000/svg" width="15" height="15" viewBox="0 0 15 15">
  <path id="big-search-len" d="M.96,15a.957.957,0,0,1-.677-1.634l3.149-3.149a6.413,6.413,0,1,1,9.7.727h0a6.424,6.424,0,0,1-8.342.626L1.636,14.72A.951.951,0,0,1,.96,15Zm2.725-4.4L.6,13.684a.508.508,0,0,0,.718.718h0L4.4,11.318ZM8.593.449A5.963,5.963,0,1,0,12.81,10.627h0A5.961,5.961,0,0,0,8.593.449Zm0,11.624A5.663,5.663,0,1,1,12.6,10.416,5.648,5.648,0,0,1,8.593,12.073Zm0-10.877a5.214,5.214,0,1,0,3.689,1.525A5.2,5.2,0,0,0,8.593,1.2Zm3.128,2.31a.224.224,0,0,1-.159-.066,4.2,4.2,0,0,0-5.939,0,.225.225,0,0,1-.318-.318,4.649,4.649,0,0,1,6.574,0,.225.225,0,0,1-.159.383Z" transform="translate(-0.003 0)" fill="#0d0e0f"/>
</svg>
