<svg xmlns="http://www.w3.org/2000/svg" width="12" height="20" viewBox="0 0 23.02 20.013">
  <g id="heart-shape-outline" transform="translate(240.01 1.465)">
    <path id="Caminho_1" data-name="Caminho 1" d="M21.37,38.16a6.121,6.121,0,0,0-4.5-1.615,5.052,5.052,0,0,0-1.624.28,6.522,6.522,0,0,0-1.54.755q-.713.475-1.226.892a11.919,11.919,0,0,0-.975.885,11.935,11.935,0,0,0-.975-.885q-.514-.417-1.226-.892a6.531,6.531,0,0,0-1.54-.755,5.053,5.053,0,0,0-1.624-.28,6.121,6.121,0,0,0-4.5,1.615A6.021,6.021,0,0,0,0,42.639a5.779,5.779,0,0,0,.3,1.8,7.939,7.939,0,0,0,.687,1.576,11.528,11.528,0,0,0,.873,1.269q.488.618.712.853a4.278,4.278,0,0,0,.353.339l8.009,7.839a.8.8,0,0,0,1.129,0l8-7.813Q23,45.516,23,42.638a6.019,6.019,0,0,0-1.63-4.478Zm-2.426,9.114L11.5,54.552,4.043,47.261q-2.4-2.434-2.4-4.622a5.753,5.753,0,0,1,.276-1.862,3.651,3.651,0,0,1,.706-1.283,3.394,3.394,0,0,1,1.046-.775,4.591,4.591,0,0,1,1.207-.4,7.248,7.248,0,0,1,1.258-.1,3.647,3.647,0,0,1,1.438.332,6.54,6.54,0,0,1,1.418.833,14.477,14.477,0,0,1,1.11.938,10.05,10.05,0,0,1,.77.8.833.833,0,0,0,1.258,0,10.024,10.024,0,0,1,.77-.8q.462-.436,1.11-.938a6.538,6.538,0,0,1,1.418-.833,3.647,3.647,0,0,1,1.438-.332,7.25,7.25,0,0,1,1.258.1,4.586,4.586,0,0,1,1.207.4,3.393,3.393,0,0,1,1.046.775,3.651,3.651,0,0,1,.706,1.283,5.758,5.758,0,0,1,.276,1.862q0,2.187-2.415,4.635Z" transform="translate(-240 -38)" fill="#fa2424"/>
    <ellipse id="Elipse_1" data-name="Elipse 1" cx="5" cy="5.5" rx="5" ry="5.5" transform="translate(-236.01 3.08)" fill="#fa2424"/>
    <ellipse id="Elipse_2" data-name="Elipse 2" cx="5" cy="5.5" rx="5" ry="5.5" transform="translate(-239.01 -0.92)" fill="#fa2424"/>
    <ellipse id="Elipse_3" data-name="Elipse 3" cx="5" cy="5.5" rx="5" ry="5.5" transform="translate(-228.01 -0.92)" fill="#fa2424"/>
    <ellipse id="Elipse_4" data-name="Elipse 4" cx="5" cy="5.5" rx="5" ry="5.5" transform="translate(-233.01 2.08)" fill="#fa2424"/>
    <ellipse id="Elipse_5" data-name="Elipse 5" cx="5" cy="5.5" rx="5" ry="5.5" transform="translate(-231.01 3.08)" fill="#fa2424"/>
    <ellipse id="Elipse_6" data-name="Elipse 6" cx="5" cy="5.5" rx="5" ry="5.5" transform="translate(-233.01 5.08)" fill="#fa2424"/>
    <ellipse id="Elipse_7" data-name="Elipse 7" cx="5" cy="5.5" rx="5" ry="5.5" transform="translate(-234.01 3.08)" fill="#fa2424"/>
    <circle id="Elipse_8" data-name="Elipse 8" cx="2" cy="2" r="2" transform="translate(-231.01 13.08)" fill="#fa2424"/>
  </g>
</svg>
