<svg xmlns="http://www.w3.org/2000/svg" xmlns:xlink="http://www.w3.org/1999/xlink" width="20" height="20" viewBox="0 0 20 20">
  <defs>
    <clipPath id="clip-path">
      <path id="Mask" d="M12,2a2,2,0,1,1,2,2A2,2,0,0,1,12,2ZM6,2A2,2,0,1,1,8,4,2,2,0,0,1,6,2ZM0,2A2,2,0,1,1,2,4,2,2,0,0,1,0,2Z" fill="#919eab"/>
    </clipPath>
  </defs>
  <g id="_2_Tone" data-name="2 Tone" opacity="0.4">
    <rect id="Polaris-icon_Major_2_Tone_Mobile_Horizontal_Dots_background" data-name="Polaris-icon/Major/2 Tone/Mobile Horizontal Dots background" width="20" height="20" fill="none"/>
    <g id="Icon" transform="translate(2 8)">
      <path id="Mask-2" data-name="Mask" d="M12,2a2,2,0,1,1,2,2A2,2,0,0,1,12,2ZM6,2A2,2,0,1,1,8,4,2,2,0,0,1,6,2ZM0,2A2,2,0,1,1,2,4,2,2,0,0,1,0,2Z" fill="#919eab"/>
      <g id="Icon-2" data-name="Icon" clip-path="url(#clip-path)">
        <g id="Color" transform="translate(-2 -8)">
          <rect id="_2_Tone_InkLightest_background" data-name="2 Tone/InkLightest background" width="21" height="21" fill="#919eab"/>
        </g>
      </g>
    </g>
  </g>
</svg>
