<svg id="_882858" data-name="882858" xmlns="http://www.w3.org/2000/svg" width="19.629" height="19.955" viewBox="0 0 19.629 19.955">
  <path id="Path" d="M14.655,19.36h0L13.327,5.454A6.027,6.027,0,0,0,7.328,0H1.194l1.8,1.842L0,3.144l1.745.611h0a6.023,6.023,0,0,0-.416,1.7L0,19.36H0l1-.83.83-.688L3.664,19.36,5.5,17.841,7.328,19.36,9.16,17.841l.83.688,1,.83,1-.83.83-.688Z" transform="translate(0.298 0.298)" fill="#efeadf"/>
  <path id="Path-2" data-name="Path" d="M1.194,0l1.8,1.842L0,3.144l1.745.611a6.023,6.023,0,0,0-.417,1.7L0,19.36l1.832-1.519,1.585,1.314.7-13.7C4.274,2.386,5.644.037,7.289,0,6.317.007,1.194,0,1.194,0Z" transform="translate(0.298 0.298)" fill="#dbc293"/>
  <path id="Path-3" data-name="Path" d="M0,2.269H0A1.557,1.557,0,0,0,1.557,3.826H3.394A6.4,6.4,0,0,0,5.86,2.8V0L.357,1.429" transform="translate(11.913 8.325)" fill="#e58b25"/>
  <path id="Path-4" data-name="Path" d="M6.789,0A.715.715,0,0,1,7.5.715h0a.715.715,0,0,1-.715.715H1.429A1.429,1.429,0,0,0,0,2.858H0A1.429,1.429,0,0,0,1.429,4.288H5.348A2.473,2.473,0,0,0,7.821,1.815h0V.6a.6.6,0,0,0-.6-.6H6.789Z" transform="translate(5.184 4.752)" fill="#dbc293"/>
  <path id="Path-5" data-name="Path" d="M3.651,0H5.165A4.206,4.206,0,0,1,9.371,4.206V6.9h0A4.215,4.215,0,0,0,5.758,4.856H.637A.637.637,0,0,1,0,4.184H0a.638.638,0,0,1,.548-.6A3.621,3.621,0,0,0,3.651,0Z" transform="translate(9.96 5.738)" fill="#ffc022"/>
  <path id="Path-6" data-name="Path" d="M0,0A1.667,1.667,0,0,0,3.335,0Z" transform="translate(8.281 6.181)" fill="#fff"/>
  <path id="Path-7" data-name="Path" d="M1.846,0a1.667,1.667,0,0,1-1.1,1.568A1.665,1.665,0,0,1,0,.179,1.661,1.661,0,0,1,.01,0H1.846Z" transform="translate(9.769 6.181)" fill="#262b3b"/>
  <path id="Shape" d="M9.413,7.351A3.9,3.9,0,0,0,8.148,6.062a3.754,3.754,0,0,1-2.5.947H3.807A1.858,1.858,0,0,1,1.976,5.451H.934A.935.935,0,0,1,.8,3.591,3.322,3.322,0,0,0,3.651.3a.3.3,0,0,1,.3-.3H5.462a4.509,4.509,0,0,1,4.5,4.5V7.2a.3.3,0,0,1-.219.286.268.268,0,0,1-.079.012A.3.3,0,0,1,9.413,7.351Z" transform="translate(9.663 5.44)" fill="#202841"/>
  <path id="Shape-2" data-name="Shape" d="M1.727,4.883a1.727,1.727,0,0,1,0-3.454h5.36a.417.417,0,0,0,0-.833H5.658a.3.3,0,1,1,0-.6H7.086a1.012,1.012,0,1,1,0,2.024H7a1.965,1.965,0,0,1-3.885,0H1.727a1.131,1.131,0,0,0,0,2.263h.12a.3.3,0,1,1,0,.6Z" transform="translate(4.886 4.454)" fill="#202841"/>
  <path id="Path-8" data-name="Path" d="M.7.02A.3.3,0,0,0,.318.191L.02.965a.3.3,0,1,0,.556.214L.874.4A.3.3,0,0,0,.7.02Z" transform="translate(13.818 7.134)" fill="#202841"/>
  <path id="Path-9" data-name="Path" d="M4.65.27a.3.3,0,0,0-.593.057L4.6,5.992,3.321,4.933a.3.3,0,0,0-.38,0L1.3,6.294.488,5.621a.3.3,0,1,0-.38.458l1,.83a.3.3,0,0,0,.38,0L3.131,5.549,4.773,6.91a.3.3,0,0,0,.486-.258Z" transform="translate(9.99 12.977)" fill="#202841"/>
  <path id="Path-10" data-name="Path" d="M9.267,6.383,7.625,7.744,5.984,6.383a.3.3,0,0,0-.38,0L3.962,7.744,2.32,6.383a.3.3,0,0,0-.38,0L.663,7.442,1.342.326A.3.3,0,0,0,.75.269L0,8.1a.3.3,0,0,0,.486.258L2.13,7,3.772,8.36a.3.3,0,0,0,.38,0L5.793,7,7.435,8.36a.3.3,0,0,0,.38,0L9.647,6.842a.3.3,0,1,0-.38-.458Z" transform="translate(0 11.526)" fill="#202841"/>
  <path id="Path-11" data-name="Path" d="M.2,3.723l1.457.51a6.334,6.334,0,0,0-.326,1.49L.856,10.68a.3.3,0,0,0,.268.325h.029a.3.3,0,0,0,.3-.269L1.922,5.78a5.728,5.728,0,0,1,.4-1.615.3.3,0,0,0-.177-.393l-1.028-.36,2.294-1,.832-.362A.3.3,0,1,0,4,1.5l-.644.28L2.2.6H7.625a5.737,5.737,0,0,1,5.528,4.224.3.3,0,0,0,.575-.156A6.334,6.334,0,0,0,7.625,0H1.492a.3.3,0,0,0-.213.506l1.5,1.533-2.6,1.13A.3.3,0,0,0,.2,3.723Z" fill="#202841"/>
</svg>
